<svg width="16" height="16" viewBox="0 0 16 16" fill="none" xmlns="http://www.w3.org/2000/svg">
<path fill-rule="evenodd" clip-rule="evenodd" d="M3.11298 6.62588C3.14871 6.58598 3.19114 6.55432 3.23786 6.53272C3.28459 6.51112 3.33467 6.5 3.38526 6.5C3.43584 6.5 3.48593 6.51112 3.53265 6.53272C3.57937 6.55432 3.62181 6.58598 3.65753 6.62588L8.0001 11.4649L12.3427 6.62588C12.3784 6.58604 12.4209 6.55444 12.4676 6.53288C12.5143 6.51132 12.5644 6.50022 12.6149 6.50022C12.6655 6.50022 12.7156 6.51132 12.7623 6.53288C12.809 6.55444 12.8515 6.58604 12.8872 6.62588C12.923 6.66571 12.9513 6.71301 12.9707 6.76506C12.99 6.8171 13 6.87289 13 6.92923C13 6.98557 12.99 7.04135 12.9707 7.0934C12.9513 7.14545 12.923 7.19274 12.8872 7.23258L8.27238 12.3741C8.23665 12.414 8.19422 12.4457 8.14749 12.4673C8.10077 12.4889 8.05068 12.5 8.0001 12.5C7.94952 12.5 7.89943 12.4889 7.85271 12.4673C7.80599 12.4457 7.76355 12.414 7.72783 12.3741L3.11298 7.23258C3.07717 7.19278 3.04875 7.1455 3.02937 7.09344C3.00998 7.04139 3 6.98559 3 6.92923C3 6.87287 3.00998 6.81707 3.02937 6.76501C3.04875 6.71296 3.07717 6.66568 3.11298 6.62588Z" fill="#212121"/>
</svg>
