<svg width="45" height="46" viewBox="0 0 45 46" fill="none" xmlns="http://www.w3.org/2000/svg">
<mask id="mask0_107_9" style="mask-type:luminance" maskUnits="userSpaceOnUse" x="0" y="0" width="45" height="46">
<path d="M0 0H45V45.173H0V0Z" fill="white"/>
</mask>
<g mask="url(#mask0_107_9)">
<path d="M43.46 21.73C43.46 33.73 33.73 43.46 21.73 43.46C9.729 43.46 0 33.73 0 21.73C0 9.729 9.729 0 21.73 0C33.73 0 43.46 9.729 43.46 21.73Z" fill="#FB7701"/>
<path d="M37.8102 29.416C38.9392 28.238 40.9202 28.724 41.3762 30.291L44.9132 42.459C45.3692 44.026 43.9572 45.499 42.3732 45.109L30.0662 42.089C28.4812 41.7 27.9122 39.742 29.0412 38.563L37.8102 29.416Z" fill="#FB7701"/>
<path d="M20.1429 25.6751C20.1589 24.7451 20.2649 24.0111 20.4599 23.4721C20.6549 22.9331 21.0539 22.3351 21.6549 21.6791L23.1899 20.0971C23.8469 19.3551 24.1749 18.5581 24.1749 17.7071C24.1749 16.8871 23.9599 16.2451 23.5299 15.7851C23.0999 15.3151 22.4749 15.0811 21.6549 15.0811C20.8579 15.0811 20.2179 15.2921 19.7329 15.7141C19.2489 16.1361 19.0069 16.7031 19.0069 17.4141H16.8389C16.8539 16.1481 17.3039 15.1281 18.1859 14.3541C19.0769 13.5741 20.2329 13.1831 21.6559 13.1831C23.1319 13.1831 24.2799 13.5821 25.1009 14.3781C25.9289 15.1681 26.3429 16.2531 26.3429 17.6361C26.3429 19.0031 25.7099 20.3511 24.4439 21.6791L23.1669 22.9451C22.5969 23.5781 22.3109 24.4881 22.3109 25.6751H20.1429ZM20.0499 29.3901C20.0499 29.0381 20.1549 28.7451 20.3659 28.5111C20.5849 28.2691 20.9059 28.1481 21.3269 28.1481C21.7489 28.1481 22.0689 28.2691 22.2879 28.5111C22.5069 28.7461 22.6159 29.0381 22.6159 29.3911C22.6159 29.7411 22.5059 30.0351 22.2879 30.2691C22.0689 30.4961 21.7479 30.6091 21.3269 30.6091C20.9049 30.6091 20.5849 30.4951 20.3669 30.2691C20.1549 30.0351 20.0499 29.7421 20.0499 29.3901Z" fill="white"/>
</g>
</svg>
